PathFileType	4	(X/Y/Z)	Patient4_TMGait_0pt6_01_right_16.trc.trc
DataRate	CameraRate	NumFrames	NumMarkers	Units	OrigDataRate	OrigDataStartFrame	OrigNumFrames
80.459770114943	80.459770114943	4	33	mm	80.459770114943	89	       141
Frame#	Time	Sacral			L.Shoulder			Chest			R.Shoulder			Neck			R.ASIS			L.ASIS			R.Thigh.Superior			R.Thigh.Lateral			R.Thigh.Inferior			R.Patella			L.Thigh.Superior			L.Thigh.Lateral			L.Thigh.Inferior			L.Patella			L.Shank.Superior			L.Shank.Lateral			L.Shank.Inferior			R.Shank.Superior			R.Shank.Lateral			R.Shank.Inferior			R.Heel			R.Midfoot.Superior			R.Midfoot.Lateral			R.Toe			L.Heel			L.Midfoot.Lateral			L.Midfoot.Superior			L.Toe			L.Elbow			L.Wrist			R.Elbow			R.Wrist			
		X1	Y1	Z1	X2	Y2	Z2	X3	Y3	Z3	X4	Y4	Z4	X5	Y5	Z5	X6	Y6	Z6	X7	Y7	Z7	X8	Y8	Z8	X9	Y9	Z9	X10	Y10	Z10	X11	Y11	Z11	X12	Y12	Z12	X13	Y13	Z13	X14	Y14	Z14	X15	Y15	Z15	X16	Y16	Z16	X17	Y17	Z17	X18	Y18	Z18	X19	Y19	Z19	X20	Y20	Z20	X21	Y21	Z21	X22	Y22	Z22	X23	Y23	Z23	X24	Y24	Z24	X25	Y25	Z25	X26	Y26	Z26	X27	Y27	Z27	X28	Y28	Z28	X29	Y29	Z29	X30	Y30	Z30	X31	Y31	Z31	X32	Y32	Z32	X33	Y33	Z33	

89	19.963714285714	637.061180631157	1004.348085665224	462.496088835122	777.335471789805	1430.714754175256	265.947211463505	897.005437623450	1368.955806179570	418.080344850884	826.071422425875	1442.076261766680	596.680309575970	771.202333982347	1493.230916548114	419.663406248976	868.261071652880	936.970984512434	565.699599396516	842.247089045191	962.762353495281	292.942614791253	899.582851261299	729.473545598618	540.639287231047	816.023430691998	621.459599090896	603.697662737759	893.509535042966	561.389130393188	527.350176243051	879.963020886820	451.755127282924	544.601850451970	908.517786905440	760.615027992383	326.624821940869	832.056032969648	637.478254542767	268.627945001710	922.348302954950	568.321794815936	333.964454268720	928.111061974779	499.488411606177	344.219745910822	909.432704167606	425.750259039367	336.496496467520	832.345836737201	302.011768077577	286.562105786567	895.249334884895	198.750791463243	361.289275830447	801.619469964510	386.689563253865	546.578508935883	681.263280292025	344.523092462625	605.710146541961	665.965047882227	238.770294562019	549.745238488513	461.879110960511	166.937480563933	520.416418038107	635.751229079182	124.541362413943	558.390170658010	527.665941474486	114.920724776314	592.853071810462	709.925186634334	31.485105716996	582.959356817750	780.132549494088	37.218988475365	405.443331331663	856.030637657966	34.971264159597	325.709670552357	936.302450749588	98.918243382261	352.878941158702	1066.461069459827	51.147844349871	329.813511234449	746.624553724609	1071.621528081855	161.555439855045	817.755739689630	820.884280160060	163.226489056847	885.026257835637	1096.083578219624	709.375388629416	1117.681039774763	1007.144184637587	650.524084212629	
90	19.976142857143	636.187547532587	1004.753026666632	459.673789314238	778.902497207927	1431.565172637780	264.231145545051	896.949867466062	1369.524837594141	417.519358344365	824.280058452009	1442.419179025809	595.525550211052	771.106612256410	1493.925443699164	418.093289903617	866.950415601162	937.356199249158	564.551077200504	842.400129432161	963.475558759648	291.498862860870	904.408330753610	732.561769831426	539.426650241577	824.238060960190	622.589890533242	602.674649502862	904.078436731789	564.152779565026	526.824287098438	892.221158599854	453.173392172393	544.638005853362	906.357595653791	759.652860921358	323.848251542905	828.175885935181	637.516709889338	266.752125206585	917.694645592866	567.427987835682	331.952991398494	922.646544388485	498.787619712250	342.386899705983	903.695472693397	425.238987940540	334.922324432557	825.900317516443	301.724047702054	285.286984613112	888.258123312988	198.430297891338	360.519148446037	812.060981275795	388.753995163548	546.052130285528	689.949112042612	350.568267828589	604.527764394872	671.751696024843	245.252437372063	548.900763050188	465.869242703197	182.265126909498	518.481266636205	637.427246637843	130.978852663207	557.592202047163	528.550551236423	126.979119852790	591.432773629507	706.320512999945	32.184430219372	582.985132647854	772.556018998136	37.190181702035	405.311478584126	848.441261533311	34.829941345321	325.555767067420	928.794761014490	98.705827916352	352.689154993059	1058.941469451615	50.884913793641	329.750598122519	754.518377620455	1072.712764175428	156.866776078835	834.159825972160	824.409795420895	158.178085741752	875.302554102604	1094.937276333292	708.762872049689	1101.961211662575	987.485878182240	654.116107046264	
91	19.988571428571	635.175653380219	1005.002198826513	456.976066384048	780.387979054155	1432.245253321881	262.685006442168	896.809410480586	1369.913625599332	417.106652926824	822.431240256009	1442.548268978676	594.541788275498	771.011629567172	1494.498315909686	416.672714695209	865.548121743227	937.614597160206	563.487903511568	842.403243828129	964.056925115606	290.103247094507	909.056989085628	735.833119173090	538.091215532033	832.448043929116	624.022093326421	601.647542673703	914.414625175855	567.351439978042	526.136000547329	904.470997133396	455.155689429830	544.332737830483	904.208175360418	758.735628514474	321.316529634894	824.441104896764	637.538031602349	264.988096878781	913.175212378645	566.564832932636	330.121618135856	917.334673973706	498.088246457638	340.713914165260	898.106636421058	424.723287376793	333.487342839240	819.627133116866	301.454213207308	284.067352339554	881.372992223829	198.098939740577	359.807864748721	822.727667804646	391.189588022650	545.321575706165	699.154675604277	356.645755165387	603.251430211670	678.212356210612	251.876733187941	547.866587032755	470.987063763121	196.982080192720	516.475844544384	640.129246232597	137.862687095340	556.634110349166	530.753219036493	138.911443762539	589.916293340542	704.177276237877	33.727411701640	582.869638894555	765.006208472748	37.184059542414	405.175248645644	840.880518645340	34.707043484957	325.409221906125	921.346103471479	98.467346205708	352.526921805349	1051.460817173771	50.540846598069	329.698151197575	762.352585061462	1073.818466030452	152.316639240339	850.590794892272	828.279976847540	153.300708096149	865.624766932443	1093.746928873940	708.276277183944	1084.597044900204	968.152421167491	657.868907318298	
92	20.001000000000	634.078059581324	1005.144691234405	454.416869726990	781.737473008334	1432.809684911903	261.324996503592	896.568932396767	1370.177322685765	416.827123645545	820.547643077910	1442.510107867295	593.727551788216	770.910173139724	1494.990348553745	415.412350622463	864.089979262350	937.842542311177	562.466571856809	842.293500921696	964.549379636029	288.746581352469	913.420476075478	739.288032903178	536.597851565628	840.530788687889	625.786051692531	600.599371845370	924.364017912308	570.993716331928	525.252002031554	916.589587787890	457.711054261604	543.701105080598	902.132751832290	757.889611481270	319.057059094201	820.866534844956	637.558408250177	263.374438863243	908.808156594406	565.737238961962	328.489679911711	912.194582451785	497.401575141672	339.246094315665	892.681130377024	424.215874489757	332.225726042567	813.532540856156	301.226334107250	282.943859997687	874.596315150648	197.770020802461	359.174433556138	833.508353658845	393.989782060584	544.417279103936	708.755842712971	362.655435368982	601.908319953155	685.326234314818	258.477890734920	546.706098124778	477.148947185088	210.632688363117	514.504555133985	643.963002331822	144.941280525310	555.565005811618	534.329108920792	150.285841831555	588.368051004203	703.770731950396	36.139396072810	582.561393944988	757.485433319385	37.200863885066	405.036089847259	833.351652057007	34.608966198635	325.271024016528	913.949045959182	98.220698193916	352.392029115882	1044.015986031201	50.147506235774	329.651475945497	770.121138920495	1074.982218954200	147.958339796589	866.980314472064	832.540070763135	148.635627093576	855.996564451092	1092.560097076390	707.898512001246	1065.625796092375	949.371204911688	661.746492783597	
